<?xml version="1.0" encoding="UTF-8" standalone="no"?>
<!-- Created with Inkscape (http://www.inkscape.org/) -->

<svg
   xmlns:dc="http://purl.org/dc/elements/1.1/"
   xmlns:cc="http://creativecommons.org/ns#"
   xmlns:rdf="http://www.w3.org/1999/02/22-rdf-syntax-ns#"
   xmlns:svg="http://www.w3.org/2000/svg"
   xmlns="http://www.w3.org/2000/svg"
   xmlns:sodipodi="http://sodipodi.sourceforge.net/DTD/sodipodi-0.dtd"
   xmlns:inkscape="http://www.inkscape.org/namespaces/inkscape"
   width="6.709012in"
   height="6.7090125in"
   viewBox="0 0 170.4089 170.40892"
   version="1.1"
   id="svg8"
   inkscape:version="0.92.4 5da689c313, 2019-01-14"
   sodipodi:docname="module.svg">
  <defs
     id="defs2">
    <filter
       style="color-interpolation-filters:sRGB"
       inkscape:label="Drop Shadow"
       id="filter1604">
      <feFlood
         flood-opacity="0.247059"
         flood-color="rgb(0,0,0)"
         result="flood"
         id="feFlood1594" />
      <feComposite
         in="flood"
         in2="SourceGraphic"
         operator="in"
         result="composite1"
         id="feComposite1596" />
      <feGaussianBlur
         in="composite1"
         stdDeviation="8"
         result="blur"
         id="feGaussianBlur1598" />
      <feOffset
         dx="-12.3"
         dy="5.3"
         result="offset"
         id="feOffset1600" />
      <feComposite
         in="SourceGraphic"
         in2="offset"
         operator="over"
         result="composite2"
         id="feComposite1602" />
    </filter>
  </defs>
  <sodipodi:namedview
     id="base"
     pagecolor="#ffffff"
     bordercolor="#666666"
     borderopacity="1.0"
     inkscape:pageopacity="0.0"
     inkscape:pageshadow="2"
     inkscape:zoom="0.4944234"
     inkscape:cx="76.726721"
     inkscape:cy="278.67021"
     inkscape:document-units="mm"
     inkscape:current-layer="layer1"
     showgrid="false"
     inkscape:measure-start="-431.429,382.857"
     inkscape:measure-end="1325.71,382.857"
     inkscape:window-width="1366"
     inkscape:window-height="717"
     inkscape:window-x="0"
     inkscape:window-y="27"
     inkscape:window-maximized="1"
     units="in"
     fit-margin-top="0"
     fit-margin-left="0"
     fit-margin-right="0"
     fit-margin-bottom="0" />
  <metadata
     id="metadata5">
    <rdf:RDF>
      <cc:Work
         rdf:about="">
        <dc:format>image/svg+xml</dc:format>
        <dc:type
           rdf:resource="http://purl.org/dc/dcmitype/StillImage" />
        <dc:title />
      </cc:Work>
    </rdf:RDF>
  </metadata>
  <g
     inkscape:label="Layer 1"
     inkscape:groupmode="layer"
     id="layer1"
     transform="translate(-20.688098,-63.355126)">
    <ellipse
       ry="71.003716"
       rx="71.003708"
       cy="148.55959"
       cx="105.89255"
       id="path3949"
       style="opacity:1;fill:#aa002f;fill-opacity:1;fill-rule:nonzero;stroke:#d5e5ff;stroke-width:3.69459748;stroke-miterlimit:4;stroke-dasharray:none;stroke-opacity:1;filter:url(#filter1604)" />
    <g
       style="fill:#000000"
       id="g20"
       transform="matrix(0.26458333,0,0,0.26458333,19.815419,140.67851)" />
    <g
       style="fill:#000000"
       id="g22"
       transform="matrix(0.26458333,0,0,0.26458333,19.815419,140.67851)" />
    <g
       style="fill:#000000"
       id="g24"
       transform="matrix(0.26458333,0,0,0.26458333,19.815419,140.67851)" />
    <g
       style="fill:#000000"
       id="g26"
       transform="matrix(0.26458333,0,0,0.26458333,19.815419,140.67851)" />
    <g
       style="fill:#000000"
       id="g28"
       transform="matrix(0.26458333,0,0,0.26458333,19.815419,140.67851)" />
    <g
       style="fill:#000000"
       id="g30"
       transform="matrix(0.26458333,0,0,0.26458333,19.815419,140.67851)" />
    <g
       style="fill:#000000"
       id="g32"
       transform="matrix(0.26458333,0,0,0.26458333,19.815419,140.67851)" />
    <g
       style="fill:#000000"
       id="g34"
       transform="matrix(0.26458333,0,0,0.26458333,19.815419,140.67851)" />
    <g
       style="fill:#000000"
       id="g36"
       transform="matrix(0.26458333,0,0,0.26458333,19.815419,140.67851)" />
    <g
       style="fill:#000000"
       id="g38"
       transform="matrix(0.26458333,0,0,0.26458333,19.815419,140.67851)" />
    <g
       style="fill:#000000"
       id="g40"
       transform="matrix(0.26458333,0,0,0.26458333,19.815419,140.67851)" />
    <g
       style="fill:#000000"
       id="g42"
       transform="matrix(0.26458333,0,0,0.26458333,19.815419,140.67851)" />
    <g
       style="fill:#000000"
       id="g44"
       transform="matrix(0.26458333,0,0,0.26458333,19.815419,140.67851)" />
    <g
       style="fill:#000000"
       id="g46"
       transform="matrix(0.26458333,0,0,0.26458333,19.815419,140.67851)" />
    <g
       style="fill:#000000"
       id="g48"
       transform="matrix(0.26458333,0,0,0.26458333,19.815419,140.67851)" />
    <g
       id="g993"
       transform="matrix(1.2155062,0,0,1.2155062,-34.57879,-32.191699)"
       style="fill:#d5e5ff">
      <path
         style="fill:#d5e5ff;stroke-width:0.19318974"
         inkscape:connector-curvature="0"
         d="m 138.58712,137.43358 c -0.75479,0.75383 -0.75518,1.97711 -9.7e-4,2.7319 5.0749,5.07838 5.07162,13.34439 -0.007,18.42624 -0.75421,0.75499 -0.75382,1.97788 7.8e-4,2.73229 0.3773,0.37691 0.87148,0.56566 1.36566,0.56566 0.49475,0 0.98913,-0.18914 1.36643,-0.56644 6.58371,-6.58777 6.58699,-17.304 0.007,-23.88868 -0.75382,-0.75479 -1.97729,-0.75557 -2.73189,-9.7e-4 z"
         id="path10" />
      <path
         style="fill:#d5e5ff;stroke-width:0.19318974"
         inkscape:connector-curvature="0"
         d="m 149.87152,128.87702 c -0.75421,-0.75499 -1.97729,-0.75538 -2.73209,-10e-4 -0.75479,0.75421 -0.75517,1.97749 -9.6e-4,2.73228 9.78912,9.7953 9.78487,25.7377 -0.0101,35.53745 -0.75421,0.75459 -0.75382,1.97787 7.8e-4,2.73228 0.3773,0.37691 0.87147,0.56566 1.36565,0.56566 0.49457,0 0.98914,-0.18914 1.36643,-0.56643 11.30006,-11.30605 11.3045,-29.69868 0.0102,-41.00008 z"
         id="path14" />
    </g>
    <g
       id="g986"
       transform="matrix(1.2155062,0,0,1.2155062,-11.139625,-32.301529)"
       style="fill:#d5e5ff">
      <path
         style="fill:#d5e5ff;stroke-width:0.19318974"
         inkscape:connector-curvature="0"
         d="m 73.557122,137.94322 c 0.754792,0.75383 0.755179,1.97711 9.66e-4,2.7319 -5.074901,5.07838 -5.071617,13.34439 0.0071,18.42624 0.754213,0.75499 0.753826,1.97788 -7.73e-4,2.73229 -0.377299,0.37691 -0.871479,0.56566 -1.365658,0.56566 -0.494759,0 -0.989132,-0.18914 -1.366431,-0.56644 -6.583713,-6.58777 -6.586997,-17.304 -0.0071,-23.88868 0.753826,-0.75479 1.977297,-0.75557 2.731896,-9.7e-4 z"
         id="path10-6" />
      <path
         style="fill:#d5e5ff;stroke-width:0.19318974"
         inkscape:connector-curvature="0"
         d="m 62.272716,129.38666 c 0.754213,-0.75499 1.977297,-0.75538 2.732089,-0.001 0.754793,0.75421 0.755179,1.97749 9.66e-4,2.73228 -9.789117,9.7953 -9.784867,25.7377 0.01005,35.53745 0.754213,0.75459 0.753827,1.97787 -7.73e-4,2.73228 -0.377299,0.37691 -0.871478,0.56566 -1.365658,0.56566 -0.494566,0 -0.989131,-0.18914 -1.366431,-0.56643 -11.300054,-11.30605 -11.304497,-29.69868 -0.01024,-41.00008 z"
         id="path14-5" />
    </g>
    <g
       style="fill:#d5e5ff"
       transform="matrix(0.11372096,0,0,0.11372096,82.639098,129.89209)"
       id="g3915">
      <g
         transform="translate(0,-50.373811)"
         id="g3859"
         style="fill:#d5e5ff">
        <path
           inkscape:connector-curvature="0"
           d="m 329.626,134.455 c -3.111,0 -6.291,0.178 -9.614,0.547 C 301.708,111.133 273.37,97.286 242.955,97.669 229.313,60.506 193.666,35.215 153.567,35.215 c -52.553,0 -95.306,42.752 -95.306,95.305 0,3.705 0.219,7.426 0.662,11.142 C 23.343,156.249 0,190.633 0,229.771 c 0,52.553 42.753,95.305 95.305,95.305 h 234.316 c 52.556,0 95.312,-42.752 95.312,-95.305 -10e-4,-52.553 -42.753,-95.316 -95.307,-95.316 z m 0,170.501 H 95.311 c -41.453,0 -75.185,-33.734 -75.185,-75.19 0,-33.22 21.315,-62.102 53.048,-71.861 l 8.785,-2.706 -1.91,-8.996 c -1.106,-5.199 -1.667,-10.471 -1.667,-15.683 0,-41.453 33.733,-75.185 75.185,-75.185 33.807,0 63.609,22.804 72.485,55.456 l 2.227,8.232 8.486,-0.859 c 2.529,-0.252 5.098,-0.38 7.614,-0.38 25.204,0 48.616,12.556 62.619,33.598 l 3.623,5.429 6.424,-1.075 c 4.565,-0.775 8.679,-1.149 12.58,-1.149 41.461,0 75.19,33.732 75.19,75.191 0.002,41.462 -33.728,75.178 -75.189,75.178 z m -86.982,63.273 h 64.33 v 16.368 h -64.33 v 5.121 h -71.228 v -5.121 H 92.118 v -16.368 h 79.292 v -8.186 h 20.784 V 339.49 l 29.663,-0.006 v 20.559 h 20.782 v 8.186 z"
           id="path3857"
           style="fill:#d5e5ff" />
      </g>
      <g
         id="g3861"
         style="fill:#d5e5ff" />
      <g
         id="g3863"
         style="fill:#d5e5ff" />
      <g
         id="g3865"
         style="fill:#d5e5ff" />
      <g
         id="g3867"
         style="fill:#d5e5ff" />
      <g
         id="g3869"
         style="fill:#d5e5ff" />
      <g
         id="g3871"
         style="fill:#d5e5ff" />
      <g
         id="g3873"
         style="fill:#d5e5ff" />
      <g
         id="g3875"
         style="fill:#d5e5ff" />
      <g
         id="g3877"
         style="fill:#d5e5ff" />
      <g
         id="g3879"
         style="fill:#d5e5ff" />
      <g
         id="g3881"
         style="fill:#d5e5ff" />
      <g
         id="g3883"
         style="fill:#d5e5ff" />
      <g
         id="g3885"
         style="fill:#d5e5ff" />
      <g
         id="g3887"
         style="fill:#d5e5ff" />
      <g
         id="g3889"
         style="fill:#d5e5ff" />
    </g>
    <circle
       r="8.9408102"
       cy="149.29289"
       cx="176.66411"
       id="path4764"
       style="opacity:1;fill:#aa002f;fill-opacity:1;fill-rule:nonzero;stroke:#d5e5ff;stroke-width:1.33838272;stroke-miterlimit:4;stroke-dasharray:none;stroke-opacity:1" />
    <circle
       r="8.9408102"
       cy="77.544136"
       cx="106.46632"
       id="path4764-3"
       style="opacity:1;fill:#aa002f;fill-opacity:1;fill-rule:nonzero;stroke:#d5e5ff;stroke-width:1.33838272;stroke-miterlimit:4;stroke-dasharray:none;stroke-opacity:1" />
    <circle
       r="8.9408102"
       cy="219.09953"
       cx="106.31953"
       id="path4764-5"
       style="opacity:1;fill:#aa002f;fill-opacity:1;fill-rule:nonzero;stroke:#d5e5ff;stroke-width:1.33838272;stroke-miterlimit:4;stroke-dasharray:none;stroke-opacity:1" />
    <circle
       r="8.9408102"
       cy="149.7226"
       cx="34.903831"
       id="path4764-6"
       style="opacity:1;fill:#aa002f;fill-opacity:1;fill-rule:nonzero;stroke:#d5e5ff;stroke-width:1.33838272;stroke-miterlimit:4;stroke-dasharray:none;stroke-opacity:1" />
    <circle
       r="8.9408102"
       cy="200.01317"
       cx="56.254749"
       id="path4764-2"
       style="opacity:1;fill:#aa002f;fill-opacity:1;fill-rule:nonzero;stroke:#d5e5ff;stroke-width:1.33838272;stroke-miterlimit:4;stroke-dasharray:none;stroke-opacity:1" />
    <circle
       r="8.9408102"
       cy="98.130417"
       cx="55.12701"
       id="path4764-9"
       style="opacity:1;fill:#aa002f;fill-opacity:1;fill-rule:nonzero;stroke:#d5e5ff;stroke-width:1.33838272;stroke-miterlimit:4;stroke-dasharray:none;stroke-opacity:1" />
    <circle
       r="8.9408102"
       cy="98.926003"
       cx="157.33777"
       id="path4764-1"
       style="opacity:1;fill:#aa002f;fill-opacity:1;fill-rule:nonzero;stroke:#d5e5ff;stroke-width:1.33838272;stroke-miterlimit:4;stroke-dasharray:none;stroke-opacity:1" />
    <circle
       r="8.9408102"
       cy="199.2606"
       cx="156.29688"
       id="path4764-27"
       style="opacity:1;fill:#aa002f;fill-opacity:1;fill-rule:nonzero;stroke:#d5e5ff;stroke-width:1.33838272;stroke-miterlimit:4;stroke-dasharray:none;stroke-opacity:1" />
  </g>
</svg>
